<svg width="21.000000" height="21.000000" viewBox="0 0 21 21" fill="none" xmlns="http://www.w3.org/2000/svg" xmlns:xlink="http://www.w3.org/1999/xlink">
	<desc>
			Created with Pixso.
	</desc>
	<defs/>
	<path id="Vector 83" d="M12.28 19.01L20 19.01C20.55 19.01 21 18.56 21 18.01L21 4.52C21 3.96 20.55 3.52 20 3.52L10.1 3.52C9.48 3.52 9.01 4.07 9.11 4.68L11.29 18.17C11.37 18.65 11.78 19.01 12.28 19.01Z" fill="#FFFFFF" fill-opacity="1.000000" fill-rule="evenodd"/>
	<path id="Vector 82" d="M14.07 15.88L12.71 18.47C12.3 19.25 11.14 19.15 10.88 18.3L10.03 15.59C10.01 15.52 9.99 15.45 9.99 15.38L9.26 7.57C9.16 6.41 10.79 6.04 11.2 7.13L14.13 15.07C14.22 15.34 14.21 15.63 14.07 15.88Z" fill="#2C3E50" fill-opacity="1.000000" fill-rule="evenodd"/>
	<path id="Кр" d="M15.06 13L15.7 13L13.76 10.79L15.62 8.71L15.01 8.71L13.12 10.79L13.12 8.71L12.58 8.71L12.58 13L13.12 13L13.12 10.82L15.06 13ZM18.38 9.87Q18.1 9.72 17.74 9.72Q17.35 9.72 17.12 9.86Q16.91 9.99 16.77 10.17Q16.76 10.19 16.74 10.22L16.72 10.22L16.64 9.78L16.21 9.78L16.21 14.43L16.74 14.43L16.74 13.12Q16.74 13 16.73 12.85Q16.72 12.69 16.7 12.59L16.74 12.59Q16.88 12.77 17.12 12.91Q17.37 13.06 17.74 13.06Q18.09 13.06 18.37 12.9Q18.55 12.8 18.7 12.63Q19.06 12.2 19.06 11.38Q19.06 10.55 18.7 10.13Q18.56 9.97 18.38 9.87ZM17 10.38Q17.21 10.16 17.65 10.16Q17.93 10.16 18.12 10.3Q18.23 10.37 18.3 10.49Q18.52 10.82 18.52 11.37Q18.52 11.74 18.42 12.02Q18.33 12.29 18.14 12.46Q18.11 12.48 18.08 12.5Q17.91 12.62 17.66 12.62Q17.23 12.62 17.02 12.4Q16.97 12.35 16.94 12.3Q16.74 11.98 16.74 11.38L16.74 11.28Q16.75 10.72 16.95 10.44Q16.98 10.41 17 10.38Z" fill="#2C3E50" fill-opacity="1.000000" fill-rule="evenodd"/>
	<path id="Vector 81" d="M7.87 0L1 0C0.44 0 0 0.44 0 1L0 14.49C0 15.04 0.44 15.49 1 15.49L9.64 15.49L14.07 15.49C14.17 15.49 14.24 15.38 14.21 15.29L8.81 0.65C8.66 0.26 8.29 0 7.87 0Z" fill="#1A5CFF" fill-opacity="1.000000" fill-rule="evenodd"/>
	<path id="Ру" d="M4.93 6.04Q4.55 5.71 3.71 5.71L2.58 5.71L2.58 10L3.12 10L3.12 8.33L3.61 8.33Q4.25 8.33 4.63 8.13Q4.99 7.95 5.15 7.65Q5.15 7.64 5.16 7.63Q5.23 7.5 5.27 7.36Q5.32 7.17 5.32 6.97Q5.32 6.53 5.11 6.23Q5.04 6.13 4.93 6.04ZM3.12 6.17L3.66 6.17Q4.23 6.17 4.5 6.38Q4.56 6.42 4.61 6.48Q4.76 6.68 4.76 7Q4.76 7.37 4.57 7.57Q4.52 7.63 4.46 7.67Q4.16 7.87 3.55 7.87L3.12 7.87L3.12 6.17ZM6.19 6.78L5.63 6.78L6.93 10.01L6.76 10.43Q6.66 10.69 6.49 10.85Q6.46 10.88 6.42 10.9Q6.27 11 6.05 11Q5.94 11 5.85 10.99Q5.76 10.98 5.69 10.97L5.69 11.39Q5.77 11.41 5.88 11.42Q5.99 11.43 6.13 11.43Q6.52 11.43 6.77 11.25Q6.82 11.21 6.86 11.16Q7.13 10.89 7.3 10.44L8.69 6.78L8.12 6.78L7.46 8.6Q7.38 8.85 7.3 9.09Q7.22 9.33 7.19 9.49L7.16 9.49Q7.13 9.29 7.05 9.07Q6.98 8.85 6.89 8.61L6.19 6.78Z" fill="#FFFFFF" fill-opacity="1.000000" fill-rule="evenodd"/>
</svg>
